' Generated by UML Generator
' Encoded: hHdBSjGuy9wlKDLUx6KcjUSfDaN8OvcjP0aa550K1usjIGGUorXoI63PRryzBAbRjfEXc4ioxgVweUwMz4mgsgfkK-t9pxnkQ4itfAYeb8TAjNpLAROiH7t9lp7onzuDBnafU5jKR6_FKf73fY7VzmXvybqBKhpuGJQKrnbjh-M2N6eHzVM7Z_c2t0fUxlq8N6Lv93ORMfUEENvdMfjYTsf1ZjoFtE3P7IlqKepORiDgXMMlXAWOhP7uvVgSrwaE2FmLHPhmcYajwwKHo3UqkX2yLfacqV_0EcvPIw_Po_K5QwMeQVMgenLNN35vJk_ufjlW5MvBlXCd7UdF5kc7a5zKGLTIjRHGfDS5rCnhkc6UptoNJ1OjRnGNDGId2p2mkLtcBWBucsJg7xsG3Ax6vwb37yTrPIDhZCGc6Verc1I8wpK8goG7XXaW58rmIhZV6EgD6WlZYSDTMdaed6EOdMJEoHrFDV6TAlYh5Lrp9BfQQPBdzqSjeyPLnrGnfFTnkfqivmMh6gGN07QZW4ibsdki0y5secPPhmNI0G0xKN2XKUgKiweq2SxgKbCUSrdmfk8r3jrMf3jPr6ks4RVi-VqIjvm1U8VApiHNreveW_2TgBkajzYj0B0R1JVYArOG0JjHyAOfzMvDOfC0TpCJDCt9NS5ipNLzYCjJgcXrqhQY3GpaJxAcbMIXsq2-RCEar1qwj83726PaL4dUju4bG6R3-SB90gqWzcvHLQmm6izfhMbQPr4Hm0jonklFh7n1vSqbKq_FwEgjQ3yVQFDgzZL17cIvxSDX-vtJPa7qdwVUYhWplGJ3QoXwNZq5AQw7bM-X02-8-GkQTh9Yo_T4jzdbW7KOxzXgQLcULCp4EsFklpRL6PSsPA_G3A_6YPLmtTIqTcXgXiL7N1OziW0km7e6ee3VWDjwwdxjyatDltJCpmOu78xPSXHk8lEMP5Zr6PLg6TnXv0W_OTHwaZGx248bT4hsUAvWPRqQNJ2FCruwR-R1zoaHiAyBFy7a1DXA7KV59iJZ7R5KnYotL_pli5nFCqodFEGYJeoXwuCiiDDi2KgscOMTwGwDjqbFFB571eNA06zScpSBaI7qFVzXsz9x2-ybJ8x4BRlMPB2tsF_GwJFI0nT-cI2-CWwm3--zAz7F9MCgSC8SzkQE5MXT5-kItTdZqeoaLHMElZ8AaXEb7kZqYyknFvCLoLXIFtmCMH5YccnY7rIO4zOpBXdMl69zTYp8QVm0YHBGE9bmnGP42SZGcHgoh9jEsOnrFrtTrJy2wn9y6ImpZILWJy0NgCikx5DcXBIPCCBW7pTXHiOCC5amjVmPcLwyxnn1K2OBMjU6B82IuWMuJNWJLnWIOBEXm9446G9e1k74vGLH3cDgAtYm8CU1TPKikiDMF1ZTU1W3fhYCP6xM24F9zhEEzcaSPHWGWKl5ECrC2zCguf0JUVfHBSmv-388k3fkgVIImAuFnYWboa4SHy_S1k5FY5VS4HYO-MqDqwEp-VwvpgW5bfPhYru20-WxoR2W6yFScLrBqJQmj2qaOzlyfmhuQP1-9RIGeHlHledKqX3dQ3dUV4UG9KxHsgNEWsLj-hJsvYrBANe7FJmWWA8hMdr8r7rSEj_TXSbcVk_ktM9D2wHkoeI0dcr679El9Uyy0gVw-wmdGsvvXuSjJPNU_CN9R_pEooHOrx8NecjbjAEYAsclCx0zO2BDa-yQTVYXL0r3ClE7RgNE07jYuPcNuYqrk_fBfwj79bQV5kJbwfDcnWFRZSxJ8r6oWNFwsFQdi39CvWCl5J5k2vW05WSkU-9POmEkOuCJ6toT6cvJDPleLXLpXv_rcXTTfUxDgEz_usCHF0GOp31nGyXyRkVmmviw8tKoc8sRgJ438_Mqb9eu8uyPE2FZvXduc74pCh8dxNb4R1hQiYkH2NLZ-squUlL9CNw1QOvv9PphmHQp8teP3CGxpPrWgfY8eucBDdoQAVQGDZm6Z5tSEyp5X3Uj09ymxkZd7MbHC6lmoT2XGUeOD3u2fYTysolGHXdh5LDZeIclVXnwRN-7p8I2nozMT4vGRIIOfKCVhoSGTewpfZmqoxjf3_fzIDs7mPA2EAAAco3VPzDy8-dWIC36WebXaTibW2LzA0LwWkaaI0Y6gPqGJDNdb2ojrI6f_Wv9ubBgWJI9fDcGAWVZguFu-JL8SHtUcDsqkcYeOKAaxU1jIvl63qQLWqtEL4cTxNbHkVMmHqJbiSEvYls0JdlewEaU4nkdN6v6e3Kj6C7k_szx5rswymq8NJZnzAZW4KYQfLJvjf413xJp-Ry7_gW3uVlx1w4KfG-kAGz28iQjNqYnoAtPe3Bqueda8GnYwM6_p-S1DlhYXiIDKa2ny0KjuUIZ35kyY24vMz13yV252yc12CI0Nwmm3yP1DlW2XNWW0Z9izwA4H6t70fKCNuYGm25wo8nUV4Qu4HwomnSSn0SHY06yo606W80CwGiBOagHEFVJHmQXTu4_c8rZGOCR4eniBCWRDYD6mQtdRzuC3DxGG7XoAuDHwJKCnCO92aBHhGj4e3iaTBI7AqO8um3lFp_REU8ueK0uyAO7Gn5eHXmeXOXe6aAvW4JT0oHO09WTzlTr1aMHIV-6IOBwLiBsJ6_DRbFz3m
' URL: http://www.plantuml.com/plantuml/uml/hHdBSjGuy9wlKDLUx6KcjUSfDaN8OvcjP0aa550K1usjIGGUorXoI63PRryzBAbRjfEXc4ioxgVweUwMz4mgsgfkK-t9pxnkQ4itfAYeb8TAjNpLAROiH7t9lp7onzuDBnafU5jKR6_FKf73fY7VzmXvybqBKhpuGJQKrnbjh-M2N6eHzVM7Z_c2t0fUxlq8N6Lv93ORMfUEENvdMfjYTsf1ZjoFtE3P7IlqKepORiDgXMMlXAWOhP7uvVgSrwaE2FmLHPhmcYajwwKHo3UqkX2yLfacqV_0EcvPIw_Po_K5QwMeQVMgenLNN35vJk_ufjlW5MvBlXCd7UdF5kc7a5zKGLTIjRHGfDS5rCnhkc6UptoNJ1OjRnGNDGId2p2mkLtcBWBucsJg7xsG3Ax6vwb37yTrPIDhZCGc6Verc1I8wpK8goG7XXaW58rmIhZV6EgD6WlZYSDTMdaed6EOdMJEoHrFDV6TAlYh5Lrp9BfQQPBdzqSjeyPLnrGnfFTnkfqivmMh6gGN07QZW4ibsdki0y5secPPhmNI0G0xKN2XKUgKiweq2SxgKbCUSrdmfk8r3jrMf3jPr6ks4RVi-VqIjvm1U8VApiHNreveW_2TgBkajzYj0B0R1JVYArOG0JjHyAOfzMvDOfC0TpCJDCt9NS5ipNLzYCjJgcXrqhQY3GpaJxAcbMIXsq2-RCEar1qwj83726PaL4dUju4bG6R3-SB90gqWzcvHLQmm6izfhMbQPr4Hm0jonklFh7n1vSqbKq_FwEgjQ3yVQFDgzZL17cIvxSDX-vtJPa7qdwVUYhWplGJ3QoXwNZq5AQw7bM-X02-8-GkQTh9Yo_T4jzdbW7KOxzXgQLcULCp4EsFklpRL6PSsPA_G3A_6YPLmtTIqTcXgXiL7N1OziW0km7e6ee3VWDjwwdxjyatDltJCpmOu78xPSXHk8lEMP5Zr6PLg6TnXv0W_OTHwaZGx248bT4hsUAvWPRqQNJ2FCruwR-R1zoaHiAyBFy7a1DXA7KV59iJZ7R5KnYotL_pli5nFCqodFEGYJeoXwuCiiDDi2KgscOMTwGwDjqbFFB571eNA06zScpSBaI7qFVzXsz9x2-ybJ8x4BRlMPB2tsF_GwJFI0nT-cI2-CWwm3--zAz7F9MCgSC8SzkQE5MXT5-kItTdZqeoaLHMElZ8AaXEb7kZqYyknFvCLoLXIFtmCMH5YccnY7rIO4zOpBXdMl69zTYp8QVm0YHBGE9bmnGP42SZGcHgoh9jEsOnrFrtTrJy2wn9y6ImpZILWJy0NgCikx5DcXBIPCCBW7pTXHiOCC5amjVmPcLwyxnn1K2OBMjU6B82IuWMuJNWJLnWIOBEXm9446G9e1k74vGLH3cDgAtYm8CU1TPKikiDMF1ZTU1W3fhYCP6xM24F9zhEEzcaSPHWGWKl5ECrC2zCguf0JUVfHBSmv-388k3fkgVIImAuFnYWboa4SHy_S1k5FY5VS4HYO-MqDqwEp-VwvpgW5bfPhYru20-WxoR2W6yFScLrBqJQmj2qaOzlyfmhuQP1-9RIGeHlHledKqX3dQ3dUV4UG9KxHsgNEWsLj-hJsvYrBANe7FJmWWA8hMdr8r7rSEj_TXSbcVk_ktM9D2wHkoeI0dcr679El9Uyy0gVw-wmdGsvvXuSjJPNU_CN9R_pEooHOrx8NecjbjAEYAsclCx0zO2BDa-yQTVYXL0r3ClE7RgNE07jYuPcNuYqrk_fBfwj79bQV5kJbwfDcnWFRZSxJ8r6oWNFwsFQdi39CvWCl5J5k2vW05WSkU-9POmEkOuCJ6toT6cvJDPleLXLpXv_rcXTTfUxDgEz_usCHF0GOp31nGyXyRkVmmviw8tKoc8sRgJ438_Mqb9eu8uyPE2FZvXduc74pCh8dxNb4R1hQiYkH2NLZ-squUlL9CNw1QOvv9PphmHQp8teP3CGxpPrWgfY8eucBDdoQAVQGDZm6Z5tSEyp5X3Uj09ymxkZd7MbHC6lmoT2XGUeOD3u2fYTysolGHXdh5LDZeIclVXnwRN-7p8I2nozMT4vGRIIOfKCVhoSGTewpfZmqoxjf3_fzIDs7mPA2EAAAco3VPzDy8-dWIC36WebXaTibW2LzA0LwWkaaI0Y6gPqGJDNdb2ojrI6f_Wv9ubBgWJI9fDcGAWVZguFu-JL8SHtUcDsqkcYeOKAaxU1jIvl63qQLWqtEL4cTxNbHkVMmHqJbiSEvYls0JdlewEaU4nkdN6v6e3Kj6C7k_szx5rswymq8NJZnzAZW4KYQfLJvjf413xJp-Ry7_gW3uVlx1w4KfG-kAGz28iQjNqYnoAtPe3Bqueda8GnYwM6_p-S1DlhYXiIDKa2ny0KjuUIZ35kyY24vMz13yV252yc12CI0Nwmm3yP1DlW2XNWW0Z9izwA4H6t70fKCNuYGm25wo8nUV4Qu4HwomnSSn0SHY06yo606W80CwGiBOagHEFVJHmQXTu4_c8rZGOCR4eniBCWRDYD6mQtdRzuC3DxGG7XoAuDHwJKCnCO92aBHhGj4e3iaTBI7AqO8um3lFp_REU8ueK0uyAO7Gn5eHXmeXOXe6aAvW4JT0oHO09WTzlTr1aMHIV-6IOBwLiBsJ6_DRbFz3m
' Generated on: 2026-03-06T01:41:20.849937100

@startuml
skinparam classAttributeIconSize 0
hide circle

class App {
  +{static} main(args: String[]): void
}

class AddCommand {
  +AddCommand(context: Context)
  +execute(arguments: String[]): boolean
}

class AddIfMinCommand {
  +AddIfMinCommand(context: Context)
  +execute(arguments: String[]): boolean
  +getMinOfMinimalPoint(): int
}

class AverageOfPersonalQualititesMaximumCommand {
  +AverageOfPersonalQualititesMaximumCommand(context: Context)
  +execute(arguments: String[]): boolean
}

class ClearCommand {
  +ClearCommand(context: Context)
  +execute(arguments: String[]): boolean
}

abstract class Command {
  -name: String
  -description: String
  -context: Context
  --
  +Command(context: Context)
  +execute(arguments: String[]): boolean
  #setName(name: String): void
  #setDescription(description: String): void
  +getContext(): Context
  +getName(): String
  +getDescription(): String
  +toString(): String
  +execute(): boolean
}

class ExecuteScriptCommand {
  +ExecuteScriptCommand(context: Context)
  +execute(arguments: String[]): boolean
}

class ExitCommand {
  +ExitCommand(context: Context)
  +execute(arguments: String[]): boolean
}

class GroupCountingByCreationDateCommand {
  +GroupCountingByCreationDateCommand(context: Context)
  +execute(arguments: String[]): boolean
}

class HelpCommand {
  +HelpCommand(context: Context)
  +execute(arguments: String[]): boolean
}

class HistoryCommand {
  +HistoryCommand(context: Context)
  +execute(arguments: String[]): boolean
}

class InfoCommand {
  +InfoCommand(context: Context)
  +execute(arguments: String[]): boolean
}

class PrintFieldDescendingDisciplineCommand {
  +PrintFieldDescendingDisciplineCommand(context: Context)
  +execute(arguments: String[]): boolean
}

class RemoveByIdCommand {
  +RemoveByIdCommand(context: Context)
  +execute(arguments: String[]): boolean
}

class RemoveLowerCommand {
  +RemoveLowerCommand(context: Context)
  +execute(arguments: String[]): boolean
}

class SaveCommand {
  +SaveCommand(context: Context)
  +execute(arguments: String[]): boolean
}

class ShowCommand {
  +ShowCommand(context: Context)
  +execute(arguments: String[]): boolean
}

class UpdateIdCommand {
  +UpdateIdCommand(context: Context)
  +execute(arguments: String[]): boolean
}

class AppException {
  -isFatalError: boolean = false
  --
  +AppException(message: String)
  +AppException(message: String, isFatalError: boolean)
  +getIsFatalError(): boolean
  +getMessage(): String
}

class CollectionManager {
  -collection: LinkedHashSet<LabWork> = new LinkedHashSet<>()
  -disciplineMap: Map<String, Discipline> = new HashMap<>()
  -initializationDate: Date
  --
  +CollectionManager()
  +setInitializationDate(context: Context): void
  +addElement(element: LabWork): void
  +getCollectionSize(): long
  +setDisciplineMap(): void
  +addDiscipline(discipline: Discipline): void
  +getDisciplineMap(): Map<String,Discipline>
  +getElementsUniqueName(): LinkedHashSet<String>
  +clearCollection(): void
  +getLastIdElement(): Long
  +generateId(): Long
  +setCollection(collection: LinkedHashSet<LabWork>): void
  +getElementByID(id: long): LabWork
  +getElementByUniqueName(uniqueName: String): LabWork
  +deleteElementByID(id: long): boolean
  +getIterator(): Iterator<LabWork>
  +getInitializationDate(): Date
  +getCollection(): LinkedHashSet<LabWork>
}

class CommandManager {
  -commandList: Map<String, Command> = new HashMap<>()
  -arguments: String
  -history: List<String> = new ArrayList<>()
  -context: Context
  --
  +registerCommand(commandName: String, command: Command): void
  +setContext(context: Context): void
  +addToHistory(commandName: String): void
  +getArgument(arguments: String[], index: int, message: String): String
  +setArguments(arguments: String[]): void
  +getHistory(): List<String>
  +getArguments(): String[]
  +getCommandList(): Map<String,Command>
}

class Context {
  -fileManager: FileManager
  -commandManager: CommandManager
  -collectionManager: CollectionManager
  -lineInput: LineInput
  -inputManager: InputManager
  -errorManager: ErrorManager
  --
  +Context(fileManager: FileManager, commandManager: CommandManager, collectionManager: CollectionManager, lineInput: LineInput, inputManager: InputManager, errorManager: ErrorManager)
  +setLineInput(scanner: LineInput): void
  +getErrorManager(): ErrorManager
  +getFileManager(): FileManager
  +getCommandManager(): CommandManager
  +getCollectionManager(): CollectionManager
  +getLineInput(): LineInput
  +getInputManager(): InputManager
}

class ErrorManager {
  -error: Exception
  -isFatalError: boolean = false
  --
  +setException(e: Exception): void
  +setException(e: Exception, fatal: boolean): void
  +executeError(): void
}

class FileManager {
  -filename: String
  --
  +FileManager(filename: String)
  +getFileName(): String
  +getFileCreationTime(): FileTime
  +saveFile(collection: LinkedHashSet<LabWork>): void
  +readFile(): LinkedHashSet<LabWork>
}

class InputManager {
  -context: Context
  -fileScriptSet: Set<String> = new HashSet<>()
  --
  +setContext(context: Context): void
  +addFileScriptToSet(filename: String): void
  +getFileScriptsSet(): Set<String>
  +readScript(): void
  +readConsoleInteractive(): void
  +readLabWork(uniqueName: String): LabWork
}

class Coordinates {
  -x: Long
  -y: int
  --
  +Coordinates()
  +Coordinates(x: Long, y: int)
  +setX(x: Long): void
  +setY(y: int): void
  +getX(): Long
  +getY(): int
}

class Discipline {
  -name: String
  -lectureHours: Long
  -labsCount: int
  --
  +Discipline()
  +Discipline(name: String, lectureHours: Long, labsCount: int)
  +getName(): String
  +getLectureHours(): Long
  +getLabsCount(): int
  +equals(obj: Object): boolean
  +hashCode(): int
}

class LabWork {
  -id: long
  -name: String
  -coordinates: Coordinates
  -creationDate: Date
  -minimalPoint: int
  -personalQualitiesMaximum: Double
  -difficulty: Difficulty
  -discipline: Discipline
  -uniqueName: String
  --
  +LabWork()
  +LabWork(id: long, name: String, coordinates: Coordinates, creationDate: Date, minimalPoint: int, personalQualitiesMaximum: Double, difficulty: Difficulty, discipline: Discipline, uniqueName: String)
  +compareTo(other: LabWork): int
  +toString(): String
  +setId(id: long): void
  +setDate(date: Date): void
  +getId(): long
  +getName(): String
  +getCoordinates(): Coordinates
  +getDate(): Date
  +getMinimalPoint(): int
  +getPersonalQualitiesMaximum(): Double
  +getDifficulty(): Difficulty
  +getDiscipline(): Discipline
  +getUniqueName(): String
}

class InputLabWork {
  -context: Context
  -lineInput: LineInput
  -reader: LineReader
  --
  +InputLabWork(context: Context)
  +disableHistory(): void
  +enableHistory(): void
  +inputName(message: String): String
  +inputMinimalPoint(message: String): int
  +inputCoordinatesX(): Long
  +inputCoordinateY(): int
  +inputCoordinates(): Coordinates
  +inputCreationDate(): Date
  +inputPersonalQualitiesMaximum(): Double
  +inputDifficulty(): Difficulty
  +inputDiscipline(): Discipline
  +inputDisciplineName(): String
  +inputDisciplineLectureHours(): Long
  +inputDisciplineLabsCount(): int
}

class JLineInput {
  -reader: LineReader
  --
  +JLineInput(reader: LineReader)
  +getLineReader(): LineReader
  +readLine(prompt: String): String
}

class LabWorkWrapper {
  -labWork: LinkedHashSet<LabWork>
  --
  +LabWorkWrapper()
  +LabWorkWrapper(labWork: LinkedHashSet<LabWork>)
  +getLabWork(): LinkedHashSet<LabWork>
  +setLabWork(labWork: LinkedHashSet<LabWork>): void
}

interface LineInput {
  ~readLine(prompt: String): String
}

class ScannerInput {
  -scanner: Scanner
  --
  +ScannerInput(scanner: Scanner)
  +readLine(prompt: String): String
}

AddCommand --|> Command
AddCommand ..> Context
AddIfMinCommand --|> Command
AddIfMinCommand ..> Context
AverageOfPersonalQualititesMaximumCommand --|> Command
AverageOfPersonalQualititesMaximumCommand ..> Context
ClearCommand --|> Command
ClearCommand ..> Context
Command *-- Context
ExecuteScriptCommand --|> Command
ExecuteScriptCommand ..> Context
ExitCommand --|> Command
ExitCommand ..> Context
GroupCountingByCreationDateCommand --|> Command
GroupCountingByCreationDateCommand ..> Context
HelpCommand --|> Command
HelpCommand ..> Context
HistoryCommand --|> Command
HistoryCommand ..> Context
InfoCommand --|> Command
InfoCommand ..> Context
PrintFieldDescendingDisciplineCommand --|> Command
PrintFieldDescendingDisciplineCommand ..> Context
RemoveByIdCommand --|> Command
RemoveByIdCommand ..> Context
RemoveLowerCommand --|> Command
RemoveLowerCommand ..> Context
SaveCommand --|> Command
SaveCommand ..> Context
ShowCommand --|> Command
ShowCommand ..> Context
UpdateIdCommand --|> Command
UpdateIdCommand ..> Context
CollectionManager o-- LabWork
CollectionManager o-- Discipline
CollectionManager ..> Context
CommandManager o-- Command
CommandManager *-- Context
Context *-- FileManager
Context *-- CommandManager
Context *-- CollectionManager
Context *-- LineInput
Context *-- InputManager
Context *-- ErrorManager
InputManager *-- Context
InputManager ..> LabWork
LabWork *-- Coordinates
LabWork *-- Discipline
LabWork ..> LabWork
InputLabWork *-- Context
InputLabWork *-- LineInput
InputLabWork ..> Coordinates
InputLabWork ..> Discipline
JLineInput ..|> LineInput
LabWorkWrapper o-- LabWork
ScannerInput ..|> LineInput
@enduml